<mxfile host="app.diagrams.net" modified="2020-09-23T18:41:55.013Z" agent="5.0 (Windows NT 10.0; Win64; x64) AppleWebKit/537.36 (KHTML, like Gecko) Chrome/85.0.4183.102 Safari/537.36 Edg/85.0.564.51" etag="V4iZQgDHgm4fiPFaQG8_" version="13.7.5" type="github">
  <diagram id="kgpKYQtTHZ0yAKxKKP6v" name="Page-1">
    <mxGraphModel dx="1422" dy="794" grid="1" gridSize="10" guides="1" tooltips="1" connect="1" arrows="1" fold="1" page="1" pageScale="1" pageWidth="850" pageHeight="1100" math="0" shadow="0">
      <root>
        <mxCell id="0" />
        <mxCell id="1" parent="0" />
        <mxCell id="1a3mdHtGsTdjZt38TQyl-14" value="" style="group;align=left;" vertex="1" connectable="0" parent="1">
          <mxGeometry x="190" y="120" width="480" height="310" as="geometry" />
        </mxCell>
        <mxCell id="1a3mdHtGsTdjZt38TQyl-3" value="IPDV" style="rounded=0;whiteSpace=wrap;html=1;" vertex="1" parent="1a3mdHtGsTdjZt38TQyl-14">
          <mxGeometry x="20" y="30" width="120" height="80" as="geometry" />
        </mxCell>
        <mxCell id="1a3mdHtGsTdjZt38TQyl-4" value="" style="shape=flexArrow;endArrow=classic;html=1;" edge="1" parent="1a3mdHtGsTdjZt38TQyl-14">
          <mxGeometry width="50" height="50" relative="1" as="geometry">
            <mxPoint x="150" y="50" as="sourcePoint" />
            <mxPoint x="250" y="50" as="targetPoint" />
          </mxGeometry>
        </mxCell>
        <mxCell id="1a3mdHtGsTdjZt38TQyl-5" value="AUTHENTICATION&lt;br&gt;CONTROLLER" style="rounded=0;whiteSpace=wrap;html=1;" vertex="1" parent="1a3mdHtGsTdjZt38TQyl-14">
          <mxGeometry x="260" y="30" width="120" height="80" as="geometry" />
        </mxCell>
        <mxCell id="1a3mdHtGsTdjZt38TQyl-6" value="USERNAME : PASSWORD" style="text;html=1;strokeColor=none;fillColor=none;align=center;verticalAlign=middle;whiteSpace=wrap;rounded=0;" vertex="1" parent="1a3mdHtGsTdjZt38TQyl-14">
          <mxGeometry x="170" width="40" height="20" as="geometry" />
        </mxCell>
        <mxCell id="1a3mdHtGsTdjZt38TQyl-7" value="" style="shape=flexArrow;endArrow=classic;html=1;" edge="1" parent="1a3mdHtGsTdjZt38TQyl-14">
          <mxGeometry width="50" height="50" relative="1" as="geometry">
            <mxPoint x="240" y="90" as="sourcePoint" />
            <mxPoint x="150" y="90" as="targetPoint" />
            <Array as="points">
              <mxPoint x="210" y="90" />
            </Array>
          </mxGeometry>
        </mxCell>
        <mxCell id="1a3mdHtGsTdjZt38TQyl-8" value="APIKEY" style="text;html=1;strokeColor=none;fillColor=none;align=center;verticalAlign=middle;whiteSpace=wrap;rounded=0;" vertex="1" parent="1a3mdHtGsTdjZt38TQyl-14">
          <mxGeometry x="180" y="100" width="40" height="20" as="geometry" />
        </mxCell>
        <mxCell id="1a3mdHtGsTdjZt38TQyl-10" value="CONTROLLER&lt;br&gt;REQUEST" style="rounded=0;whiteSpace=wrap;html=1;" vertex="1" parent="1a3mdHtGsTdjZt38TQyl-14">
          <mxGeometry x="20" y="230" width="120" height="80" as="geometry" />
        </mxCell>
        <mxCell id="1a3mdHtGsTdjZt38TQyl-11" value="" style="shape=flexArrow;endArrow=classic;html=1;" edge="1" parent="1a3mdHtGsTdjZt38TQyl-14">
          <mxGeometry width="50" height="50" relative="1" as="geometry">
            <mxPoint x="80" y="120" as="sourcePoint" />
            <mxPoint x="80" y="220" as="targetPoint" />
          </mxGeometry>
        </mxCell>
        <mxCell id="1a3mdHtGsTdjZt38TQyl-12" value="APIKEY&lt;br&gt;+&lt;br&gt;SELLER ID" style="text;html=1;strokeColor=none;fillColor=none;align=center;verticalAlign=middle;whiteSpace=wrap;rounded=0;" vertex="1" parent="1a3mdHtGsTdjZt38TQyl-14">
          <mxGeometry x="110" y="160" width="40" height="20" as="geometry" />
        </mxCell>
        <mxCell id="1a3mdHtGsTdjZt38TQyl-13" value="" style="shape=mxgraph.bpmn.shape;html=1;verticalLabelPosition=bottom;labelBackgroundColor=#ffffff;verticalAlign=top;align=center;perimeter=ellipsePerimeter;outlineConnect=0;outline=standard;symbol=message;" vertex="1" parent="1a3mdHtGsTdjZt38TQyl-14">
          <mxGeometry y="210" width="50" height="50" as="geometry" />
        </mxCell>
        <mxCell id="1a3mdHtGsTdjZt38TQyl-15" value="&lt;div style=&quot;text-align: left&quot;&gt;&lt;span&gt;Querystring&amp;nbsp;&lt;/span&gt;&lt;/div&gt;&lt;div style=&quot;text-align: left&quot;&gt;&lt;ul&gt;&lt;li&gt;&lt;span&gt;api_key&lt;/span&gt;&lt;/li&gt;&lt;/ul&gt;&lt;/div&gt;&lt;div style=&quot;text-align: left&quot;&gt;&lt;span&gt;Header&lt;/span&gt;&lt;/div&gt;&lt;ul&gt;&lt;li&gt;X-Tenant-Id&lt;/li&gt;&lt;/ul&gt;" style="shape=note;whiteSpace=wrap;html=1;size=14;verticalAlign=top;align=center;spacingTop=-6;fontStyle=1;fontFamily=Verdana;" vertex="1" parent="1a3mdHtGsTdjZt38TQyl-14">
          <mxGeometry x="250" y="160" width="150" height="120" as="geometry" />
        </mxCell>
        <mxCell id="1a3mdHtGsTdjZt38TQyl-17" value="Autenticação e Personificação de Vendedores para ferramentas internas" style="text;align=center;fontStyle=1;verticalAlign=middle;spacingLeft=3;spacingRight=3;strokeColor=none;rotatable=0;points=[[0,0.5],[1,0.5]];portConstraint=eastwest;fontFamily=Verdana;fontSize=18;" vertex="1" parent="1">
          <mxGeometry x="390" y="50" width="80" height="26" as="geometry" />
        </mxCell>
      </root>
    </mxGraphModel>
  </diagram>
</mxfile>
